Coordinates
version=1
nRows=4
nColumns=114
inDegrees=yes

Units are S.I. units (second, meters, Newtons, ...)
If the header above contains a line with 'inDegrees', this indicates whether rotational values are in degrees (yes) or radians (no).

endheader 
time	pelvis_tilt	pelvis_list	pelvis_rotation	pelvis_tx	pelvis_ty	pelvis_tz	hip_flexion_l	hip_adduction_l	hip_rotation_l	hip_flexion_r	hip_adduction_r	hip_rotation_r	knee_angle_l	knee_angle_r	ankle_angle_l	ankle_angle_r	subtalar_angle_l	subtalar_angle_r	mtp_angle_l	mtp_angle_r	lumbar_extension	lumbar_bending	lumbar_rotation	arm_flex_l	arm_add_l	arm_rot_l	arm_flex_r	arm_add_r	arm_rot_r	elbow_flex_l	elbow_flex_r	pro_sup_l	pro_sup_r	addbrev_l/activation	addlong_l/activation	addmagDist_l/activation	addmagIsch_l/activation	addmagMid_l/activation	addmagProx_l/activation	bflh_l/activation	bfsh_l/activation	edl_l/activation	ehl_l/activation	fdl_l/activation	fhl_l/activation	gaslat_l/activation	gasmed_l/activation	glmax1_l/activation	glmax2_l/activation	glmax3_l/activation	glmed1_l/activation	glmed2_l/activation	glmed3_l/activation	glmin1_l/activation	glmin2_l/activation	glmin3_l/activation	grac_l/activation	iliacus_l/activation	perbrev_l/activation	perlong_l/activation	piri_l/activation	psoas_l/activation	recfem_l/activation	sart_l/activation	semimem_l/activation	semiten_l/activation	soleus_l/activation	tfl_l/activation	tibant_l/activation	tibpost_l/activation	vasint_l/activation	vaslat_l/activation	vasmed_l/activation	addbrev_r/activation	addlong_r/activation	addmagDist_r/activation	addmagIsch_r/activation	addmagMid_r/activation	addmagProx_r/activation	bflh_r/activation	bfsh_r/activation	edl_r/activation	ehl_r/activation	fdl_r/activation	fhl_r/activation	gaslat_r/activation	gasmed_r/activation	glmax1_r/activation	glmax2_r/activation	glmax3_r/activation	glmed1_r/activation	glmed2_r/activation	glmed3_r/activation	glmin1_r/activation	glmin2_r/activation	glmin3_r/activation	grac_r/activation	iliacus_r/activation	perbrev_r/activation	perlong_r/activation	piri_r/activation	psoas_r/activation	recfem_r/activation	sart_r/activation	semimem_r/activation	semiten_r/activation	soleus_r/activation	tfl_r/activation	tibant_r/activation	tibpost_r/activation	vasint_r/activation	vaslat_r/activation	vasmed_r/activation	
          2.38000000	         17.65549714	          9.03709057	        -36.51669019	          1.11711688	          0.95777502	          0.34886735	         26.41800562	          0.05444270	         -5.61515441	        -13.02738475	        -16.20973571	         -9.08922401	         71.02464146	          6.58019733	          6.88383342	         10.35336576	        -13.19748676	         -9.45972604	          0.05462797	        -10.69906191	        -19.75671850	        -18.38270616	         -1.30764405	          3.42520288	        -17.59316094	         20.99866627	          7.53596364	        -13.11664821	         17.09346368	         22.73247565	         20.94383937	         71.36246409	         72.88713071	          0.01048024	          0.01030327	          0.01094705	          0.01120832	          0.01072104	          0.01105854	          0.01989865	          0.14482018	          0.10251220	          0.05201532	          0.01297454	          0.01138059	          0.02659175	          0.04089408	          0.06109436	          0.03229508	          0.01139690	          0.10448639	          0.10040947	          0.12306784	          0.03997286	          0.07257996	          0.07299611	          0.01180223	          0.09887555	          0.05730326	          0.08541998	          0.12201875	          0.08143374	          0.05969698	          0.21453584	          0.01831272	          0.01325401	          0.01012143	          0.13847011	          0.14483325	          0.01082097	          0.01269631	          0.01106333	          0.01198507	          0.03211062	          0.11899884	          0.01034899	          0.01030337	          0.01069606	          0.01119377	          0.01010392	          0.03843166	          0.01294837	          0.02416200	          0.04533195	          0.07065494	          0.13430239	          0.19045757	          0.01196650	          0.01028940	          0.01010254	          0.27046396	          0.02612483	          0.02116139	          0.22187114	          0.02311951	          0.01174171	          0.01210305	          0.40519794	          0.01252229	          0.01403992	          0.01250128	          0.21243434	          0.50244460	          0.14252981	          0.01009033	          0.01024323	          0.06326642	          0.22779688	          0.10718882	          0.13798661	          0.01097589	          0.01031510	          0.01067563	
          2.39000000	         17.03750427	          8.68014830	        -36.62700539	          1.12001565	          0.95616501	          0.34847972	         24.97168836	         -0.47166567	         -5.36892410	        -12.82307125	        -15.68418476	         -8.88863399	         68.48016363	          6.47601789	          6.33875775	         10.71236078	        -13.51839569	         -9.16658846	          0.06277611	        -10.46429784	        -18.80238257	        -17.69974453	         -0.66832326	          2.96763615	        -17.26627903	         20.88327029	          6.77826885	        -13.43062477	         17.21076247	         22.64207715	         21.05972749	         70.99106833	         72.55843149	          0.01063599	          0.01038660	          0.01121935	          0.01122795	          0.01100324	          0.01160704	          0.01672909	          0.12089955	          0.10804593	          0.04497239	          0.01434680	          0.01268392	          0.02233732	          0.03420653	          0.05154398	          0.02718695	          0.01211982	          0.08730756	          0.08438337	          0.10589016	          0.03384916	          0.06115017	          0.06192606	          0.01126626	          0.08261632	          0.04895300	          0.08907182	          0.12237168	          0.06817457	          0.05050451	          0.17899564	          0.01535920	          0.01150647	          0.01100991	          0.13388638	          0.14162475	          0.01190878	          0.01310756	          0.01228683	          0.01272562	          0.04428339	          0.15636031	          0.01038178	          0.01035133	          0.01078761	          0.01106075	          0.01010197	          0.03458455	          0.01710104	          0.02246366	          0.03918922	          0.05996457	          0.13311566	          0.19292674	          0.01021885	          0.01010673	          0.01009712	          0.28547735	          0.02180543	          0.01765410	          0.24469817	          0.01964017	          0.01104329	          0.01195950	          0.40508362	          0.01298398	          0.01344110	          0.01195570	          0.18681046	          0.48342587	          0.12265462	          0.01009484	          0.01024918	          0.05279109	          0.21773490	          0.09024949	          0.13844992	          0.01143542	          0.01051803	          0.01105157	
          2.40000000	         16.37126623	          8.31677168	        -36.70015912	          1.12299552	          0.95463546	          0.34797441	         23.52540281	         -1.02923219	         -5.12893579	        -12.59229355	        -15.12240902	         -8.73990116	         65.79048186	          6.37962980	          5.80311194	         11.09128052	        -13.83563748	         -8.85421633	          0.07132832	        -10.17407424	        -17.84503675	        -16.95164379	         -0.13617799	          2.44211680	        -16.97297699	         20.72648969	          6.05493645	        -13.75830062	         17.33525304	         22.59520777	         21.25422257	         70.69361503	         72.28173972	          0.01057092	          0.01039242	          0.01063490	          0.01063910	          0.01062307	          0.01125476	          0.01416069	          0.10467229	          0.12075527	          0.05841940	          0.01301133	          0.01142506	          0.01911446	          0.04322680	          0.04325371	          0.02278674	          0.01070633	          0.07408919	          0.07363522	          0.09442140	          0.03099845	          0.05598460	          0.06053056	          0.01249991	          0.08076910	          0.06452474	          0.10068332	          0.10937730	          0.08098031	          0.04214061	          0.15364909	          0.01318625	          0.01187002	          0.01011451	          0.13872334	          0.16074896	          0.01081415	          0.01117260	          0.01035450	          0.01079874	          0.05151273	          0.13733548	          0.01048298	          0.01044047	          0.01110305	          0.01132872	          0.01012647	          0.04045049	          0.01598840	          0.02507829	          0.03908917	          0.06143686	          0.14785836	          0.20676848	          0.01021814	          0.01012753	          0.01011122	          0.23909063	          0.01821038	          0.01473686	          0.20976632	          0.01675994	          0.01088533	          0.01252744	          0.35457269	          0.01237801	          0.01162192	          0.01173231	          0.16742512	          0.47838286	          0.10804185	          0.01012321	          0.01031897	          0.04485221	          0.20811989	          0.07586833	          0.14773184	          0.01087008	          0.01028709	          0.01060758	
          2.41000000	         15.67606298	          7.92194494	        -36.76595278	          1.12603181	          0.95320039	          0.34739192	         22.02462450	         -1.63318694	         -4.92221231	        -12.36133947	        -14.50341169	         -8.52799427	         62.92767424	          6.26704995	          5.30660328	         11.38083710	        -14.09828941	         -8.68152883	          0.07543590	         -9.87876051	        -16.91088257	        -16.13209754	          0.32833548	          1.84992991	        -16.69566834	         20.48469532	          5.36329667	        -14.10511994	         17.39693729	         22.61540863	         21.54724545	         70.27225870	         71.88570615	          0.01054174	          0.01037890	          0.01057914	          0.01062355	          0.01055841	          0.01106012	          0.01227090	          0.14932448	          0.12817209	          0.06079119	          0.01264422	          0.01124909	          0.02713799	          0.04492209	          0.03632873	          0.01910847	          0.01051460	          0.12769773	          0.10204649	          0.09932228	          0.05108027	          0.07366920	          0.06341820	          0.01378498	          0.11536538	          0.07209790	          0.10179979	          0.09328534	          0.07984845	          0.03556052	          0.18295292	          0.01354955	          0.01402360	          0.01014712	          0.14472743	          0.17484718	          0.01071286	          0.01040101	          0.01013332	          0.01027133	          0.07257347	          0.11523291	          0.01061820	          0.01054746	          0.01158693	          0.01170655	          0.01015786	          0.04862442	          0.01425111	          0.02304926	          0.04624329	          0.07265271	          0.13633994	          0.18808459	          0.01021808	          0.01012873	          0.01012268	          0.20044642	          0.01522262	          0.01231853	          0.18090717	          0.01447019	          0.01074048	          0.01339458	          0.33927553	          0.01170637	          0.01093579	          0.01146109	          0.16216807	          0.50830874	          0.10524400	          0.01017529	          0.01045583	          0.04852785	          0.21187747	          0.09565577	          0.15675495	          0.01043992	          0.01014001	          0.01029629	
